HIERARCHY
ROOT Hips
{
  OFFSET 0.382225 96.6805 0.598322
  CHANNELS 6 Xposition Yposition Zposition Zrotation Xrotation Yrotation
  JOINT Spine
  {
    OFFSET 10.8089 -0.851416 0
    CHANNELS 3 Zrotation Xrotation Yrotation
    JOINT Spine1
    {
      OFFSET 18.8753 3.80116 0
      CHANNELS 3 Zrotation Xrotation Yrotation
      JOINT Spine2
      {
        OFFSET 13.4073 0.420477 0
        CHANNELS 3 Zrotation Xrotation Yrotation
        JOINT LeftShoulder
        {
          OFFSET 11.8837 -2.73209 -3.78198
          CHANNELS 3 Zrotation Xrotation Yrotation
          JOINT LeftArm
          {
            OFFSET 15.7849 0 -2.35849e-005
            CHANNELS 3 Zrotation Xrotation Yrotation
            JOINT LeftForeArm
            {
              OFFSET 30.3399 0 0
              CHANNELS 3 Zrotation Xrotation Yrotation
              JOINT LeftHand
              {
                OFFSET 26.9751 0 2.45913e-005
                CHANNELS 3 Zrotation Xrotation Yrotation
                End Site
                {
                  OFFSET 8 0 0
                }
              }
            }
          }
        }
        JOINT RightShoulder
        {
          OFFSET 11.8838 -2.7321 3.782
          CHANNELS 3 Zrotation Xrotation Yrotation
          JOINT RightArm
          {
            OFFSET -15.7848 0 -1.07056e-005
            CHANNELS 3 Zrotation Xrotation Yrotation
            JOINT RightForeArm
            {
              OFFSET -30.34 1.02096e-005 -2.53607e-005
              CHANNELS 3 Zrotation Xrotation Yrotation
              JOINT RightHand
              {
                OFFSET -26.9752 2.07668e-005 0
                CHANNELS 3 Zrotation Xrotation Yrotation
                End Site
                {
                  OFFSET -8 0 0
                }
              }
            }
          }
        }
        JOINT Neck
        {
          OFFSET 16.5588 -0.355318 0
          CHANNELS 3 Zrotation Xrotation Yrotation
          JOINT Head
          {
            OFFSET 9.28361 0.364157 0
            CHANNELS 3 Zrotation Xrotation Yrotation
            End Site
            {
              OFFSET 0 0 0
            }
          }
        }
      }
    }
  }
  JOINT LeftUpLeg
  {
    OFFSET -1.44883 -0.531424 -9.00581
    CHANNELS 3 Zrotation Xrotation Yrotation
    JOINT LeftLeg
    {
      OFFSET -42.572 0.0788889 -0.011964
      CHANNELS 3 Zrotation Xrotation Yrotation
      JOINT LeftFoot
      {
        OFFSET -40.1967 0 0
        CHANNELS 3 Zrotation Xrotation Yrotation
				JOINT LeftToe
        {
          OFFSET -10.4538 -16.5779 0.0801563
          CHANNELS 3 Zrotation Xrotation Yrotation
          End Site
          {
            OFFSET -1.0 -1.0 0.0
          }
        }
      }
    }
  }
  JOINT RightUpLeg
  {
    OFFSET -1.44865 -0.531427 9.0058
    CHANNELS 3 Zrotation Xrotation Yrotation
    JOINT RightLeg
    {
      OFFSET 42.5723 -3.24776e-005 0
      CHANNELS 3 Zrotation Xrotation Yrotation
      JOINT RightFoot
      {
        OFFSET 40.1968 0 -1.14003e-005
        CHANNELS 3 Zrotation Xrotation Yrotation
				JOINT RightToe
        {
          OFFSET 10.4538 16.5778 -0.0801573
          CHANNELS 3 Zrotation Xrotation Yrotation
          End Site
          {
            OFFSET -1.0 -1.0 0.0
          }
        }
      }
    }
  }
}
MOTION
Frames:	17
Frame Time:	0.0333333
-190.657 96.2757 9.0368 -57.7735 -87.8688 -149.681 -6.09494 -4.16386 1.96519 16.5461 -0.1263 -0.2366 2.7794 1.93418e-006 1.65929e-005 -2.9637 13.5564 85.6029 5.08351 -7.11177 10.0334 0.90061 -15.0625 8.08218 -48.9851 -73.0737 -54.797 175.677 15.7999 96.0206 -22.5483 -12.5642 -9.06562 -0.000293818 1.48314 0.207782 166.136 -86.3299 168.205 -23.508 4.63459e-006 -5.90926e-006 11.5157 -12.2064 5.73344 -0.0117577 18.9158 -6.74467 -5.18436 -5.72246 2.09213 5.09385 5.50047 -0.00234539 -90 0 0 -175.304 16.103 -12.0281 -8.67655 -5.73572 1.61311 4.62241 7.04484 6.46079 -90 0 0
-190.662 96.2787 9.04778 -58.0478 -87.8833 -149.939 -6.07134 -4.18456 1.94254 16.566 -0.127354 -0.23847 2.7794 1.93418e-006 1.65929e-005 -2.95475 13.5266 85.5507 5.08357 -7.0802 10.0697 0.878916 -15.0623 8.07175 -48.842 -73.027 -54.6515 175.678 15.7949 96.0214 -22.5195 -12.5609 -9.13414 0.00074692 1.19711 0.200372 166.138 -86.6721 168.126 -23.508 4.63459e-006 -5.90926e-006 11.4189 -12.2483 5.90253 -0.0148689 18.9587 -6.77009 -5.20667 -5.7224 2.08935 5.10816 5.47945 -0.0334935 -90 0 0 -175.357 16.0787 -12.0062 -8.64311 -5.73647 1.6184 4.59822 7.07628 6.47833 -90 0 0
-190.657 96.2801 9.06728 -58.5321 -87.8946 -150.427 -6.05765 -4.25313 1.92727 16.5688 -0.129482 -0.238744 2.7794 1.93418e-006 1.65929e-005 -2.95283 13.6092 85.5108 5.01909 -7.07084 10.0907 0.870346 -15.0621 8.06756 -48.7567 -73.0793 -54.5953 175.711 15.7854 95.9354 -22.5623 -12.4943 -9.09787 0.000831011 1.18879 0.196962 165.435 -86.6917 167.469 -23.508 4.63459e-006 -5.90926e-006 11.4114 -12.2076 5.9773 -0.0939438 19.1406 -6.76625 -5.09309 -5.72229 2.10445 5.06534 5.28607 0.000459719 -90 0 0 -175.295 16.1851 -12.0314 -8.79713 -5.73677 1.59425 4.68608 6.94787 6.38568 -90 0 0
-190.668 96.2796 9.05896 -58.8997 -87.9206 -150.775 -6.08618 -4.24106 1.93933 16.6279 -0.132117 -0.244293 2.7794 1.93418e-006 1.65929e-005 -2.9497 13.4611 85.5296 5.0646 -6.96334 9.97815 0.955851 -15.0602 8.10903 -48.7698 -73.1154 -54.5895 175.708 15.8006 95.9257 -22.5958 -12.5177 -9.13475 0.000347474 1.38496 0.193939 166.705 -86.3786 168.713 -23.508 4.63459e-006 -5.90926e-006 11.3126 -12.3081 6.01029 -0.0434196 19.0134 -6.79492 -5.22754 -5.72231 2.08706 5.12513 5.38426 -0.0384386 -90 0 0 -175.376 16.1214 -11.9898 -8.71296 -5.73683 1.60747 4.63182 7.05053 6.43565 -90 0 0
-190.668 96.2797 9.05599 -59.5821 -87.9012 -151.457 -6.09462 -4.26511 1.95652 16.6696 -0.134685 -0.248225 2.7794 1.93418e-006 1.65929e-005 -2.94433 13.4395 85.4892 5.09933 -6.92356 9.94219 1.00639 -15.0589 8.1335 -48.8021 -73.0904 -54.5963 175.752 15.7363 95.8617 -22.5367 -12.529 -9.0819 0.000981786 1.28688 0.19125 166.725 -86.5634 168.729 -23.508 4.63459e-006 -5.90926e-006 11.2819 -12.3263 5.99299 -0.0483044 19.1208 -6.80586 -5.23367 -5.72229 2.08613 5.13502 5.25171 -0.0511639 -90 0 0 -175.419 16.0423 -11.9782 -8.66128 -5.73681 1.6156 4.6044 7.11783 6.44265 -90 0 0
-190.669 96.2799 9.05298 -59.9591 -87.8815 -151.819 -6.1219 -4.29703 1.96412 16.7403 -0.136616 -0.254872 2.7794 1.93418e-006 1.65929e-005 -2.94052 13.487 85.4463 5.07985 -6.95492 9.91552 0.948968 -15.0594 8.10573 -48.7409 -73.0478 -54.6107 175.802 15.6558 95.8024 -22.5085 -12.5372 -9.04882 0.00074455 1.48315 0.188927 165.71 -86.4482 167.772 -23.508 4.63459e-006 -5.90926e-006 11.2923 -12.3439 5.94915 -0.0499668 19.0053 -6.81408 -5.24927 -5.72227 2.08726 5.13663 5.46466 -0.0410803 -90 0 0 -175.445 16.0673 -11.9616 -8.59613 -5.73667 1.62586 4.55787 7.07874 6.48719 -90 0 0
-190.671 96.2807 9.05187 -60.1723 -87.8383 -152.028 -6.08984 -4.24599 1.97375 16.7394 -0.137922 -0.257826 2.7794 1.93418e-006 1.65929e-005 -2.94172 13.4537 85.4719 5.07388 -6.92765 9.85046 0.917867 -15.0593 8.09063 -48.6387 -73.0059 -54.3905 175.833 15.6142 95.7518 -22.3642 -12.55 -9.02869 0.00223472 1.18468 0.186893 168.775 -86.9798 170.794 -23.508 4.63459e-006 -5.90926e-006 11.3535 -12.4393 5.98021 -0.0553237 19.0297 -6.81296 -5.22025 -5.72225 2.08937 5.12718 5.46973 -0.0286185 -90 0 0 -175.446 16.056 -11.9593 -8.5487 -5.73646 1.63322 4.5395 7.04051 6.45796 -90 0 0
-190.67 96.2808 9.04013 -60.9333 -87.8196 -152.77 -6.11024 -4.25578 1.95807 16.7138 -0.138969 -0.260102 2.7794 1.93418e-006 1.65929e-005 -2.92344 13.3769 85.342 5.27539 -6.8573 10.0565 0.767134 -15.0613 8.01771 -48.9715 -73.0934 -54.7004 175.887 15.5431 95.6662 -22.3429 -12.4454 -8.98154 0.0018669 1.4831 0.185217 167.249 -86.4624 169.28 -23.508 4.63459e-006 -5.90926e-006 11.4831 -12.4161 5.98308 -0.0794188 19.0547 -6.83465 -5.1842 -5.72224 2.09226 5.10323 5.48985 0.0200658 -90 0 0 -175.478 16.0507 -11.9373 -8.50133 -5.73617 1.64069 4.49737 7.02398 6.48691 -90 0 0
-190.658 96.2811 9.02365 -61.0953 -87.7937 -152.93 -6.15137 -4.2611 1.96074 16.7366 -0.139718 -0.261742 2.7794 1.93418e-006 1.65929e-005 -2.91341 13.3035 85.2804 5.41452 -6.79875 10.1706 0.799271 -15.0601 8.03332 -49.2393 -73.1961 -55.0562 175.929 15.5427 95.537 -22.2839 -12.4204 -8.83869 0.0038222 1.08785 0.183787 165.285 -86.9266 167.253 -23.508 4.63459e-006 -5.90926e-006 11.5827 -12.4367 5.94522 -0.0850152 19.0976 -6.82673 -5.1494 -5.72223 2.09662 5.08428 5.45831 0.0500162 -90 0 0 -175.49 16.0243 -11.944 -8.4252 -5.7358 1.65261 4.42964 7.02216 6.56527 -90 0 0
-190.648 96.2827 9.00823 -61.3217 -87.7544 -153.18 -6.17732 -4.24878 1.9883 16.7818 -0.14013 -0.262785 2.7794 1.93418e-006 1.65929e-005 -2.9136 13.2435 85.3067 5.49282 -6.76562 10.197 0.86013 -15.0584 8.06283 -49.3834 -73.1158 -55.2348 175.976 15.5186 95.4203 -22.3727 -12.455 -8.74991 0.00331351 1.48313 0.182697 166.902 -86.4418 168.929 -23.508 4.63459e-006 -5.90926e-006 11.5529 -12.5141 5.92663 -0.0839819 19.1231 -6.79329 -5.1341 -5.72222 2.09984 5.06983 5.46573 0.0227321 -90 0 0 -175.429 16.0093 -11.9729 -8.47563 -5.73543 1.64469 4.45889 6.98027 6.49475 -90 0 0
-190.639 96.2838 8.99067 -60.9084 -87.7216 -152.784 -6.16667 -4.28275 1.99009 16.8074 -0.140165 -0.263271 2.7794 1.93418e-006 1.65929e-005 -2.92085 13.2286 85.3659 5.57691 -6.69258 10.2124 0.836146 -15.0581 8.05109 -49.6662 -73.1619 -55.4679 176.014 15.4352 95.397 -22.3922 -12.5043 -8.79184 0.0041373 1.48312 0.181847 166.752 -86.4455 168.758 -23.508 4.63459e-006 -5.90926e-006 11.4836 -12.5958 5.9727 -0.058479 19.1058 -6.76137 -5.13946 -5.72222 2.10281 5.06676 5.53409 -0.00777243 -90 0 0 -175.387 16.0098 -11.9968 -8.45584 -5.73499 1.64772 4.44096 6.95521 6.51867 -90 0 0
-190.634 96.2836 8.97905 -60.6945 -87.7088 -152.572 -6.17366 -4.26059 1.9755 16.7996 -0.139784 -0.26324 2.7794 1.93418e-006 1.65929e-005 -2.92625 13.2389 85.4033 5.54794 -6.70225 10.2727 0.818835 -15.0577 8.04276 -49.7334 -73.2323 -55.5413 176.008 15.5062 95.3392 -22.4511 -12.4626 -8.80801 0.0056375 1.2869 0.181236 169.432 -86.9512 171.489 -23.508 4.63459e-006 -5.90926e-006 11.4875 -12.7116 6.03684 -0.0222517 19.1128 -6.76456 -5.16561 -5.72221 2.10524 5.07673 5.47792 -0.0185938 -90 0 0 -175.426 15.9934 -11.9965 -8.33141 -5.73446 1.66725 4.37568 6.97246 6.55992 -90 0 0
-190.631 96.2841 8.97764 -60.7391 -87.7018 -152.638 -6.18089 -4.28799 1.97038 16.7674 -0.138051 -0.262733 2.7794 1.93418e-006 1.65929e-005 -2.93116 13.2805 85.4349 5.57404 -6.69575 10.3137 0.806727 -15.0572 8.03698 -49.2415 -73.1973 -55.0421 175.993 15.5273 95.3635 -22.5107 -12.4451 -8.92536 0.00625281 1.38502 0.180885 167.326 -86.5833 169.386 -23.508 4.63459e-006 -5.90926e-006 11.4777 -12.7706 6.10253 -0.0590107 19.0956 -6.72804 -5.11592 -5.7222 2.10682 5.0528 5.52548 -0.030982 -90 0 0 -175.423 15.974 -12.0219 -8.32467 -5.73397 1.66831 4.37891 6.98498 6.55678 -90 0 0
-190.64 96.2855 8.97386 -60.3271 -87.7004 -152.226 -6.20533 -4.32947 1.9591 16.7698 -0.136834 -0.261789 2.7794 1.93418e-006 1.65929e-005 -2.93337 13.3566 85.4342 5.57633 -6.68536 10.3392 0.789596 -15.0568 8.02869 -48.8845 -73.1788 -54.7799 175.963 15.5868 95.3884 -22.5748 -12.4607 -8.99624 0.00783664 1.18881 0.180736 167.611 -86.7681 169.657 -23.508 4.63459e-006 -5.90926e-006 11.4844 -12.7779 6.11733 -0.0574625 19.1299 -6.73238 -5.06441 -5.72219 2.10727 5.01795 5.48462 -0.00835429 -90 0 0 -175.369 15.9779 -12.0161 -8.4029 -5.7335 1.65598 4.41781 6.97895 6.52152 -90 0 0
-190.651 96.2859 8.98022 -60.1457 -87.7172 -152.044 -6.25124 -4.35629 1.96684 16.8018 -0.135746 -0.26045 2.7794 1.93418e-006 1.65929e-005 -2.94168 13.3042 85.5101 5.72477 -6.70612 10.1971 0.823205 -15.0556 8.0451 -48.7611 -73.1653 -54.6083 175.915 15.6584 95.4535 -22.6494 -12.5044 -9.10848 0.00852218 1.28695 0.180818 168.288 -86.7161 170.335 -23.508 4.63459e-006 -5.90926e-006 11.4517 -12.8106 6.13387 -0.0439279 19.2002 -6.73914 -5.08417 -5.72217 2.10469 5.02907 5.39803 -0.0213042 -90 0 0 -175.378 15.9627 -12.0093 -8.4196 -5.73301 1.65336 4.43737 6.99566 6.51108 -90 0 0
-190.665 96.2813 8.99878 -58.8795 -87.6984 -150.777 -6.18674 -4.37117 1.95745 16.7535 -0.134768 -0.258754 2.7794 1.93418e-006 1.65929e-005 -2.95939 13.3888 85.6209 5.67936 -6.74252 9.99528 0.891388 -15.0538 8.07806 -49.3296 -73.1187 -55.2436 175.862 15.7317 95.5347 -22.6751 -12.5744 -9.22199 0.00891936 1.48311 0.181101 167.93 -86.4582 169.997 -23.508 4.63459e-006 -5.90926e-006 11.5026 -12.8258 6.14676 0.0120872 19.1198 -6.75671 -5.11412 -5.72215 2.10074 5.05059 5.48244 -0.00870682 -90 0 0 -175.333 15.9481 -11.9899 -8.45217 -5.73252 1.65314 4.48617 7.02564 6.49548 -90 0 0
-190.679 96.2715 9.02473 -58.9329 -87.7004 -150.836 -6.20522 -4.3713 1.97814 16.7519 -0.133884 -0.256743 2.7794 1.93418e-006 1.65929e-005 -2.96373 13.4293 85.6503 5.74408 -6.77873 9.89564 0.862467 -15.0538 8.06407 -48.6241 -73.0845 -54.5119 175.798 15.8055 95.6511 -22.5699 -12.5756 -9.28938 0.0108946 1.18468 0.181527 165.676 -86.792 167.719 -23.508 4.63459e-006 -5.90926e-006 11.5472 -12.8005 6.14138 0.070904 19.1538 -6.78182 -5.25754 -5.72217 2.0822 5.13391 5.43327 -0.0195274 -90 0 0 -175.373 15.9018 -11.9844 -8.43396 -5.73207 1.65109 4.51643 7.09655 6.52576 -90 0 0
